<?xml version="1.0" encoding="UTF-8" standalone="no"?>
<!-- Created with Inkscape (http://www.inkscape.org/) -->

<svg
   version="1.1"
   id="svg898"
   width="300"
   height="300"
   viewBox="0 0 300 300"
   sodipodi:docname="lion.svg"
   inkscape:version="1.1.1 (3bf5ae0d25, 2021-09-20)"
   xmlns:inkscape="http://www.inkscape.org/namespaces/inkscape"
   xmlns:sodipodi="http://sodipodi.sourceforge.net/DTD/sodipodi-0.dtd"
   xmlns="http://www.w3.org/2000/svg"
   xmlns:svg="http://www.w3.org/2000/svg">
  <defs
     id="defs902" />
  <sodipodi:namedview
     id="namedview900"
     pagecolor="#505050"
     bordercolor="#eeeeee"
     borderopacity="1"
     inkscape:pageshadow="0"
     inkscape:pageopacity="0"
     inkscape:pagecheckerboard="0"
     showgrid="false"
     inkscape:object-paths="true"
     width="300px"
     inkscape:snap-page="true"
     inkscape:snap-bbox="true"
     inkscape:bbox-nodes="true"
     inkscape:zoom="2.5614802"
     inkscape:cx="130.78376"
     inkscape:cy="148.74212"
     inkscape:window-width="1918"
     inkscape:window-height="1057"
     inkscape:window-x="0"
     inkscape:window-y="0"
     inkscape:window-maximized="1"
     inkscape:current-layer="layer1" />
  <g
     inkscape:groupmode="layer"
     id="layer1"
     inkscape:label="vector">
    <g
       id="g154897"
       transform="matrix(1.0848757,0,0,1.0848757,-25.422116,-18.385264)">
      <path
         style="fill:#4c4a4f;fill-opacity:1;stroke:none;stroke-width:1.38619px;stroke-linecap:butt;stroke-linejoin:miter;stroke-opacity:1"
         d="M 261.24065,94.232401 250.35809,79.896202 217.1623,53.945041 l 0.71404,-19.284683 16.2376,8.354008 z"
         id="path2863" />
      <path
         style="fill:#1b1a1f;fill-opacity:1;stroke:none;stroke-width:1.38619px;stroke-linecap:butt;stroke-linejoin:miter;stroke-opacity:1"
         d="M 216.31281,70.957981 250.35809,79.896202 217.1623,53.945041 Z"
         id="path2978" />
      <path
         style="fill:#030303;fill-opacity:1;stroke:none;stroke-width:1.38619px;stroke-linecap:butt;stroke-linejoin:miter;stroke-opacity:1"
         d="m 217.87634,34.660358 -14.84255,38.17397 -35.31747,6.183506 25.94182,9.64079 22.65467,-17.700643 0.84949,-17.01294 0.71404,-19.284683"
         id="path3093" />
      <path
         style="fill:#222127;fill-opacity:1;stroke:none;stroke-width:1.38619px;stroke-linecap:butt;stroke-linejoin:miter;stroke-opacity:1"
         d="m 195.59927,28.261097 22.27707,6.399261 -4.40476,11.328762 z"
         id="path3208" />
      <path
         style="fill:#4b494e;fill-opacity:1;stroke:none;stroke-width:1.38619px;stroke-linecap:butt;stroke-linejoin:miter;stroke-opacity:1"
         d="m 190.37563,34.314887 21.3002,16.292758 -8.64204,22.226683 -35.31747,6.183506 -6.78531,1.329141 z"
         id="path3342" />
      <path
         style="fill:none;stroke:none;stroke-width:1.38619px;stroke-linecap:butt;stroke-linejoin:miter;stroke-opacity:1"
         d="M 172.04782,62.967564 152.13396,52.858902 190.37563,34.314887 Z"
         id="path3457" />
      <path
         style="fill:#1b1a1f;fill-opacity:1;stroke:none;stroke-width:1.38619px;stroke-linecap:butt;stroke-linejoin:miter;stroke-opacity:1"
         d="m 152.13396,52.858902 -14.3758,-8.848739 52.61747,-9.695276 -38.24167,18.544015"
         id="path3572" />
      <path
         style="fill:#4c4a4f;fill-opacity:1;stroke:none;stroke-width:1.38619px;stroke-linecap:butt;stroke-linejoin:miter;stroke-opacity:1"
         d="m 137.75816,44.010163 -18.70473,-12.173059 71.3222,2.477783 -52.61747,9.695276"
         id="path3687" />
      <path
         style="fill:#4c4a4f;fill-opacity:1;stroke:none;stroke-width:1.38619px;stroke-linecap:butt;stroke-linejoin:miter;stroke-opacity:1"
         d="m 67.207939,56.696017 70.550221,-12.685854 14.3758,8.848739 -34.08287,16.397153 z"
         id="path3804" />
      <path
         style="fill:none;stroke:none;stroke-width:1.38619px;stroke-linecap:butt;stroke-linejoin:miter;stroke-opacity:1"
         d="M 60.556205,87.902089 80.892733,67.002333 102.28392,71.87528 Z"
         id="path3999" />
      <path
         style="fill:#1c1b20;fill-opacity:1;stroke:none;stroke-width:1.38619px;stroke-linecap:butt;stroke-linejoin:miter;stroke-opacity:1"
         d="m 118.05109,69.256055 34.08287,-16.397153 19.91386,10.108662 -11.11681,17.379411 -25.5833,6.117257 -17.29662,-17.208177"
         id="path4114" />
      <path
         style="fill:#4d4b50;fill-opacity:1;stroke:none;stroke-width:1.38619px;stroke-linecap:butt;stroke-linejoin:miter;stroke-opacity:1"
         d="m 135.34771,86.464232 15.44996,13.613238 10.13334,-19.730495 -25.5833,6.117257"
         id="path4229" />
      <path
         style="fill:#4b494e;fill-opacity:1;stroke:none;stroke-width:1.38619px;stroke-linecap:butt;stroke-linejoin:miter;stroke-opacity:1"
         d="M 118.05109,69.256055 46.802898,104.2956 135.34771,86.464232 Z"
         id="path4344" />
      <path
         style="fill:#242329;fill-opacity:1;stroke:none;stroke-width:1.38619px;stroke-linecap:butt;stroke-linejoin:miter;stroke-opacity:1"
         d="m 135.34771,86.464232 15.44996,13.613238 20.37064,19.23511 L 46.802898,104.2956 135.34771,86.464232"
         id="path4459" />
      <path
         style="fill:#020202;fill-opacity:1;stroke:none;stroke-width:1.38619px;stroke-linecap:butt;stroke-linejoin:miter;stroke-opacity:1"
         d="m 171.16831,119.31258 10.76996,17.3371 -56.33902,-7.0127 -80.744404,21.75659 37.477058,-26.23542 -35.529006,-20.86255 124.365412,15.01698"
         id="path4574" />
      <path
         style="fill:#5e5d63;fill-opacity:1;stroke:none;stroke-width:1.38619px;stroke-linecap:butt;stroke-linejoin:miter;stroke-opacity:1"
         d="m 181.93827,136.64968 -10.76996,-17.3371 24.79498,7.19154 -14.02502,10.14556"
         id="path4689" />
      <path
         style="fill:#1d1c21;fill-opacity:1;stroke:none;stroke-width:1.38619px;stroke-linecap:butt;stroke-linejoin:miter;stroke-opacity:1"
         d="m 142.27217,164.28073 39.6661,-27.63105 7.0125,12.17256 z"
         id="path4804" />
      <path
         style="fill:#1b1a1f;fill-opacity:1;stroke:none;stroke-width:1.38619px;stroke-linecap:butt;stroke-linejoin:miter;stroke-opacity:1"
         d="m 125.59925,129.63698 16.67292,34.64375 -37.82452,-3.63413 z"
         id="path4919" />
      <path
         style="fill:#434146;fill-opacity:1;stroke:none;stroke-width:1.38619px;stroke-linecap:butt;stroke-linejoin:miter;stroke-opacity:1"
         d="m 44.854846,151.39357 59.592804,9.25303 21.1516,-31.00962 z"
         id="path5053" />
      <path
         style="fill:#030303;fill-opacity:1;stroke:none;stroke-width:1.38619px;stroke-linecap:butt;stroke-linejoin:miter;stroke-opacity:1"
         d="m 23.433209,184.26679 21.421637,-32.87322 59.592804,9.25303 z"
         id="path5248" />
      <path
         style="fill:#010101;fill-opacity:1;stroke:none;stroke-width:1.38619px;stroke-linecap:butt;stroke-linejoin:miter;stroke-opacity:1"
         d="M 85.942248,171.05105 23.78901,199.7834 68.163607,196.38483 Z"
         id="path5363" />
      <path
         style="fill:#4c4a4f;fill-opacity:1;stroke:none;stroke-width:1.38619px;stroke-linecap:butt;stroke-linejoin:miter;stroke-opacity:1"
         d="m 104.44765,160.6466 37.82452,3.63413 -82.708539,55.76854 44.884019,-59.40267"
         id="path5478" />
      <path
         style="fill:#48474c;fill-opacity:1;stroke:none;stroke-width:1.38619px;stroke-linecap:butt;stroke-linejoin:miter;stroke-opacity:1"
         d="m 160.99355,96.59651 5.14356,-8.36119 18.96499,6.614143 -5.98597,9.333597 -9.75112,-11.426512 z"
         id="path5593" />
      <path
         style="fill:#020202;fill-opacity:1;stroke:none;stroke-width:1.38619px;stroke-linecap:butt;stroke-linejoin:miter;stroke-opacity:1"
         d="m 243.08701,107.56008 -3.55587,-10.301684 -18.02611,-0.14358 z"
         id="path5708" />
      <path
         style="fill:#3a3a3e;fill-opacity:1;stroke:none;stroke-width:1.38619px;stroke-linecap:butt;stroke-linejoin:miter;stroke-opacity:1"
         d="m 239.53114,97.258396 11.50494,17.528384 -7.94907,-7.2267 z"
         id="path5823" />
      <path
         style="fill:#4b494e;fill-opacity:1;stroke:none;stroke-width:1.38619px;stroke-linecap:butt;stroke-linejoin:miter;stroke-opacity:1"
         d="m 270.35563,119.00076 25.37815,24.30512 -6.43975,-17.31843 z"
         id="path5938" />
      <path
         style="fill:#020201;fill-opacity:1;stroke:none;stroke-width:1.38619px;stroke-linecap:butt;stroke-linejoin:miter;stroke-opacity:1"
         d="m 289.29403,125.98745 6.43975,17.31843 4.2288,-15.05822 -10.66855,-2.26021"
         id="path6053" />
      <path
         style="fill:#454347;fill-opacity:1;stroke:none;stroke-width:1.38619px;stroke-linecap:butt;stroke-linejoin:miter;stroke-opacity:1"
         d="m 295.73378,143.30588 -2.2415,-2.14672 -7.80628,13.56184 7.38648,-1.16051 z"
         id="path6168" />
      <path
         style="fill:#19191c;fill-opacity:1;stroke:none;stroke-width:1.38619px;stroke-linecap:butt;stroke-linejoin:miter;stroke-opacity:1"
         d="m 285.686,154.721 -3.28506,8.4271 8.6253,-0.69056 2.50913,5.08918 -0.46289,-13.98623 -7.38648,1.16051"
         id="path6283" />
      <path
         style="fill:#4a484d;fill-opacity:1;stroke:none;stroke-width:1.38619px;stroke-linecap:butt;stroke-linejoin:miter;stroke-opacity:1"
         d="m 285.686,154.721 -3.28506,8.4271 -29.21604,0.9631 32.5011,-9.3902"
         id="path6398" />
      <path
         style="fill:#626167;fill-opacity:1;stroke:none;stroke-width:1.38619px;stroke-linecap:butt;stroke-linejoin:miter;stroke-opacity:1"
         d="m 150.51614,167.61743 35.62551,7.16685 24.83997,-24.08875 z"
         id="path6513" />
      <path
         style="fill:#232228;fill-opacity:1;stroke:none;stroke-width:1.38619px;stroke-linecap:butt;stroke-linejoin:miter;stroke-opacity:1"
         d="m 160.65157,214.04375 0.49504,27.49457 25.57239,-9.70742 2.30037,-36.42412 z"
         id="path6628" />
      <path
         style="fill:none;stroke:none;stroke-width:1.38619px;stroke-linecap:butt;stroke-linejoin:miter;stroke-opacity:1"
         d="m 160.65157,214.04375 0.49504,27.49457 -121.885507,26.38105 107.504307,-44.291 13.88616,-9.58462"
         id="path6743" />
      <path
         style="fill:#242529;fill-opacity:1;stroke:none;stroke-width:1.38619px;stroke-linecap:butt;stroke-linejoin:miter;stroke-opacity:1"
         d="m 146.76541,223.62837 -9.66902,-3.31082 -97.835287,47.60182 107.504307,-44.291"
         id="path6858" />
      <path
         style="fill:#010101;fill-opacity:1;stroke:none;stroke-width:1.38619px;stroke-linecap:butt;stroke-linejoin:miter;stroke-opacity:1"
         d="m 150.51614,167.61743 -106.827618,73.11548 80.495298,-25.81445 12.91257,5.39909 9.66902,3.31082 42.25396,-28.22159 20.62094,9.39364 35.41492,-4.99821 -44.64024,-7.86717 -49.89885,-24.31761"
         id="path6973" />
      <path
         style="fill:none;stroke:none;stroke-width:1.38619px;stroke-linecap:butt;stroke-linejoin:miter;stroke-opacity:1"
         d="m 186.14165,174.78428 -7.66195,6.46087 -27.96356,-13.62772 35.62551,7.16685"
         id="path7088" />
      <path
         style="fill:#242329;fill-opacity:1;stroke:none;stroke-width:1.38619px;stroke-linecap:butt;stroke-linejoin:miter;stroke-opacity:1"
         d="m 186.14165,174.78428 -7.66195,6.46087 21.93529,10.68989 44.64024,7.86717 14.94291,2.41769 -10.40059,-13.36511 -63.4559,-14.07051"
         id="path7316" />
      <path
         style="fill:#09080b;fill-opacity:1;stroke:none;stroke-width:1.38619px;stroke-linecap:butt;stroke-linejoin:miter;stroke-opacity:1"
         d="m 259.99814,202.2199 14.1881,-0.88095 -24.58869,-12.48416 10.40059,13.36511"
         id="path7431" />
      <path
         style="fill:#4b494e;fill-opacity:1;stroke:none;stroke-width:1.38619px;stroke-linecap:butt;stroke-linejoin:miter;stroke-opacity:1"
         d="m 259.99814,202.2199 14.1881,-0.88095 10.46532,-0.90204 -19.00696,17.01811 -5.64646,-15.23512"
         id="path7546" />
      <path
         style="fill:#0d0e12;fill-opacity:1;stroke:none;stroke-width:1.38619px;stroke-linecap:butt;stroke-linejoin:miter;stroke-opacity:1"
         d="m 189.01937,195.40678 -2.30037,36.42412 43.65099,-16.11965 -20.72968,-10.91083 -20.62094,-9.39364"
         id="path7661" />
      <path
         style="fill:#4a484d;fill-opacity:1;stroke:none;stroke-width:1.38619px;stroke-linecap:butt;stroke-linejoin:miter;stroke-opacity:1"
         d="m 209.64031,204.80042 20.72968,10.91083 14.68524,-15.90904 -35.41492,4.99821"
         id="path7776" />
      <path
         style="fill:#040404;fill-opacity:1;stroke:none;stroke-width:1.38619px;stroke-linecap:butt;stroke-linejoin:miter;stroke-opacity:1"
         d="m 245.05523,199.80221 -14.68524,15.90904 -4.83466,36.24753 8.42576,-21.11078 11.09414,-31.04579"
         id="path7891" />
      <path
         style="fill:#4b474f;fill-opacity:1;stroke:none;stroke-width:1.38619px;stroke-linecap:butt;stroke-linejoin:miter;stroke-opacity:1"
         d="m 225.53533,251.95878 8.40597,-21.06119 13.52468,51.26446 -21.93065,-30.20327"
         id="path8006" />
      <path
         style="fill:#010101;fill-opacity:1;stroke:none;stroke-width:1.38619px;stroke-linecap:butt;stroke-linejoin:miter;stroke-opacity:1"
         d="m 222.65185,234.68104 -5.81734,25.30196 -23.41086,17.3161 z"
         id="path8121" />
      <path
         style="fill:#4c4a4f;fill-opacity:1;stroke:none;stroke-width:1.38619px;stroke-linecap:butt;stroke-linejoin:miter;stroke-opacity:1"
         d="m 186.719,231.8309 -2.81296,43.05107 46.46395,-59.17072 -43.65099,16.11965"
         id="path8236" />
      <path
         style="fill:none;stroke:none;stroke-width:1.38619px;stroke-linecap:butt;stroke-linejoin:miter;stroke-opacity:1"
         d="m 161.14661,241.53832 0.13048,15.44835 25.44196,-25.15577 z"
         id="path8351" />
      <path
         style="fill:#232228;fill-opacity:1;stroke:none;stroke-width:1.38619px;stroke-linecap:butt;stroke-linejoin:miter;stroke-opacity:1"
         d="m 186.71905,231.8309 -25.44196,25.15577 22.62895,17.8953 2.81296,-43.05107"
         id="path8466" />
      <path
         style="fill:none;stroke:none;stroke-width:1.38619px;stroke-linecap:butt;stroke-linejoin:miter;stroke-opacity:1"
         d="m 161.27709,256.98667 -21.30134,19.41062 43.93029,-1.51532 -22.62895,-17.8953"
         id="path8581" />
      <path
         style="fill:#4c4a4f;fill-opacity:1;stroke:none;stroke-width:1.38619px;stroke-linecap:butt;stroke-linejoin:miter;stroke-opacity:1"
         d="m 161.27709,256.98667 -21.30134,19.41062 -58.263353,3.54216 79.564693,-22.95278 -122.015987,10.9327 121.885507,-26.38105 0.13048,15.44835"
         id="path8696" />
      <path
         style="fill:#4b494e;fill-opacity:1;stroke:none;stroke-width:1.38619px;stroke-linecap:butt;stroke-linejoin:miter;stroke-opacity:1"
         d="m 142.27217,164.28073 -16.67292,-34.64375 56.33902,7.0127 z"
         id="path107250" />
    </g>
  </g>
</svg>
